<svg width="64" height="64" viewBox="0 0 64 64" fill="none" xmlns="http://www.w3.org/2000/svg">
  <rect width="64" height="64" rx="18" fill="url(#paint0_linear)" />
  <path d="M22 41.5C24.5 44 28.2 45.5 32.4 45.5C39 45.5 43.5 42.1 43.5 36.8C43.5 31.8 39.9 29.9 33.5 28.7C29.2 27.9 27.8 27.2 27.8 25.2C27.8 23.4 29.5 22.2 32.1 22.2C34.8 22.2 37 23.3 39.1 25.2L42.8 20.4C40.1 17.8 36.6 16.5 32.3 16.5C25.9 16.5 21.4 20.1 21.4 25.6C21.4 31.1 25.2 32.9 31.7 34.1C35.7 34.9 37.1 35.6 37.1 37.4C37.1 39.1 35.4 39.8 32.6 39.8C29.3 39.8 26.8 38.6 24.5 36.3L22 41.5Z" fill="#7F1D1D"/>
  <defs>
    <linearGradient id="paint0_linear" x1="6" y1="5" x2="58" y2="59" gradientUnits="userSpaceOnUse">
      <stop stop-color="#FACC15"/>
      <stop offset="0.48" stop-color="#F97316"/>
      <stop offset="1" stop-color="#EF4444"/>
    </linearGradient>
  </defs>
</svg>